<?xml version="1.0" encoding="UTF-8" standalone="yes"?>
<!DOCTYPE svg PUBLIC "-//W3C//DTD SVG 1.1//EN" "http://www.w3.org/Graphics/SVG/1.1/DTD/svg11.dtd">

<svg width="200" height="200" viewBox="0 0 200 200" xmlns="http://www.w3.org/2000/svg" xmlns:xlink="http://www.w3.org/1999/xlink" version="1.1" baseProfile="full">
    <g transform="scale(1,-1) translate(0,-200)">
        <path d="M 108.769306 625.354066 L 232.170959 625.354066 C 237.923925 625.354066 242.587625 620.690365 242.587625 614.937400 L 242.587625 545.046197 C 242.587625 539.293232 237.923925 534.629531 232.170959 534.629531 L 47.614518 534.629531 L 58.031184 545.046197 L 58.031184 468.602695 L 47.614518 479.019362 L 154.635410 479.019362 C 160.388376 479.019362 165.052076 474.355661 165.052076 468.602695 L 165.052076 394.343293 L 144.218744 394.343293 L 144.218744 468.602695 L 154.635410 458.186029 L 47.614518 458.186029 C 41.861552 458.186029 37.197852 462.849730 37.197852 468.602695 L 37.197852 545.046197 C 37.197852 550.799163 41.861552 555.462863 47.614518 555.462863 L 232.170959 555.462863 L 221.754293 545.046197 L 221.754293 614.937400 L 232.170959 604.520734 L 108.769306 604.520734 L 108.769306 625.354066 Z M 242.587625 468.602695 L 242.587625 394.343293 L 221.754293 394.343293 L 221.754293 468.602695 L 242.587625 468.602695 Z M 80.376006 289.464297 L 14.853002 289.464297 L 25.269668 299.880963 L 25.269668 164.466768 L 14.853002 174.883434 L 80.376006 174.883434 C 86.128971 174.883434 90.792672 170.219733 90.792672 164.466768 L 90.792672 83.655058 L 69.959340 83.655058 L 69.959340 164.466768 L 80.376006 154.050102 L 14.853002 154.050102 C 9.100036 154.050102 4.436336 158.713802 4.436336 164.466768 L 4.436336 299.880963 C 4.436336 305.633929 9.100036 310.297629 14.853002 310.297629 L 80.376006 310.297629 L 80.376006 289.464297 Z M 108.769306 24.180520 L 232.170959 24.180520 L 221.754293 13.763854 L 221.754293 83.655058 L 232.170959 73.238392 L 154.635410 73.238392 C 148.882444 73.238392 144.218744 77.902092 144.218744 83.655058 L 144.218744 164.466768 C 144.218744 170.219733 148.882444 174.883434 154.635410 174.883434 L 232.170959 174.883434 L 221.754293 164.466768 L 221.754293 229.989761 L 232.170959 219.573095 L 80.376006 219.573095 L 80.376006 240.406427 L 232.170959 240.406427 C 237.923925 240.406427 242.587625 235.742726 242.587625 229.989761 L 242.587625 164.466768 C 242.587625 158.713802 237.923925 154.050102 232.170959 154.050102 L 154.635410 154.050102 L 165.052076 164.466768 L 165.052076 83.655058 L 154.635410 94.071724 L 232.170959 94.071724 C 237.923925 94.071724 242.587625 89.408023 242.587625 83.655058 L 242.587625 13.763854 C 242.587625 8.010888 237.923925 3.347188 232.170959 3.347188 L 108.769306 3.347188 L 108.769306 24.180520 Z" transform="scale(0.240000,0.240000) translate(120.833329,120.833329)" fill="#5972ff" opacity="1.000000"></path>
        <path d="M 52.522805 27.437434 C 52.522805 41.158473 41.399705 52.281572 27.678666 52.281572 C 13.957627 52.281572 2.834528 41.158473 2.834528 27.437434 C 2.834528 13.716395 13.957627 2.593295 27.678666 2.593295 C 41.399705 2.593295 52.522805 13.716395 52.522805 27.437434 Z" transform="scale(0.240000,0.240000) translate(216.666658,708.333305)" fill="#5972ff" opacity="1.000000"></path>
        <path d="M 51.404944 26.786140 C 51.404944 40.507180 40.281843 51.630280 26.560803 51.630280 C 12.839763 51.630280 1.716662 40.507180 1.716662 26.786140 C 1.716662 13.065099 12.839763 1.941999 26.560803 1.941999 C 40.281843 1.941999 51.404944 13.065099 51.404944 26.786140 Z" transform="scale(0.240000,0.240000) translate(249.999990,491.666647)" fill="#5972ff" opacity="1.000000"></path>
        <path d="M 52.848457 26.786140 C 52.848457 40.507180 41.725356 51.630280 28.004316 51.630280 C 14.283276 51.630280 3.160176 40.507180 3.160176 26.786140 C 3.160176 13.065099 14.283276 1.941999 28.004316 1.941999 C 41.725356 1.941999 52.848457 13.065099 52.848457 26.786140 Z" transform="scale(0.240000,0.240000) translate(324.999987,491.666647)" fill="#5972ff" opacity="1.000000"></path>
        <path d="M 52.848457 29.120226 C 52.848457 42.841266 41.725356 53.964366 28.004316 53.964366 C 14.283276 53.964366 3.160176 42.841266 3.160176 29.120226 C 3.160176 15.399185 14.283276 4.276085 28.004316 4.276085 C 41.725356 4.276085 52.848457 15.399185 52.848457 29.120226 Z" transform="scale(0.240000,0.240000) translate(324.999987,562.499978)" fill="#5972ff" opacity="1.000000"></path>
        <path d="M 51.053483 29.593693 C 51.053483 43.314733 39.930383 54.437834 26.209342 54.437834 C 12.488302 54.437834 1.365202 43.314733 1.365202 29.593693 C 1.365202 15.872653 12.488302 4.749552 26.209342 4.749552 C 39.930383 4.749552 51.053483 15.872653 51.053483 29.593693 Z" transform="scale(0.240000,0.240000) translate(174.999993,391.666651)" fill="#5972ff" opacity="1.000000"></path>
        <path d="M 51.053483 27.850345 C 51.053483 41.571385 39.930383 52.694486 26.209342 52.694486 C 12.488302 52.694486 1.365202 41.571385 1.365202 27.850345 C 1.365202 14.129305 12.488302 3.006204 26.209342 3.006204 C 39.930383 3.006204 51.053483 14.129305 51.053483 27.850345 Z" transform="scale(0.240000,0.240000) translate(174.999993,174.999993)" fill="#5972ff" opacity="1.000000"></path>
        <path d="M 51.053483 26.642167 C 51.053483 40.363207 39.930383 51.486307 26.209342 51.486307 C 12.488302 51.486307 1.365202 40.363207 1.365202 26.642167 C 1.365202 12.921126 12.488302 1.798026 26.209342 1.798026 C 39.930383 1.798026 51.053483 12.921126 51.053483 26.642167 Z" transform="scale(0.240000,0.240000) translate(174.999993,324.999987)" fill="#5972ff" opacity="1.000000"></path>
        <path d="M 50.897621 28.792448 C 50.897621 42.513488 39.774520 53.636589 26.053480 53.636589 C 12.332440 53.636589 1.209339 42.513488 1.209339 28.792448 C 1.209339 15.071408 12.332440 3.948307 26.053480 3.948307 C 39.774520 3.948307 50.897621 15.071408 50.897621 28.792448 Z" transform="scale(0.240000,0.240000) translate(199.999992,104.166663)" fill="#5972ff" opacity="1.000000"></path>
        <path d="M 137.937952 604.520742 L 14.536298 604.520742 L 24.952964 614.937408 L 24.952964 545.046205 L 14.536298 555.462871 L 199.092740 555.462871 C 204.845705 555.462871 209.509406 550.799171 209.509406 545.046205 L 209.509406 468.602703 C 209.509406 462.849738 204.845705 458.186037 199.092740 458.186037 L 92.071847 458.186037 L 102.488513 468.602703 L 102.488513 394.343301 L 81.655181 394.343301 L 81.655181 468.602703 C 81.655181 474.355669 86.318881 479.019369 92.071847 479.019369 L 199.092740 479.019369 L 188.676074 468.602703 L 188.676074 545.046205 L 199.092740 534.629539 L 14.536298 534.629539 C 8.783332 534.629539 4.119632 539.293240 4.119632 545.046205 L 4.119632 614.937408 C 4.119632 620.690373 8.783332 625.354074 14.536298 625.354074 L 137.937952 625.354074 L 137.937952 604.520742 Z M 24.952964 468.602703 L 24.952964 394.343301 L 4.119632 394.343301 L 4.119632 468.602703 L 24.952964 468.602703 Z M 166.331252 310.297637 L 231.854256 310.297637 C 237.607221 310.297637 242.270922 305.633936 242.270922 299.880971 L 242.270922 164.466775 C 242.270922 158.713810 237.607221 154.050109 231.854256 154.050109 L 166.331252 154.050109 L 176.747918 164.466775 L 176.747918 83.655066 L 155.914586 83.655066 L 155.914586 164.466775 C 155.914586 170.219741 160.578286 174.883442 166.331252 174.883442 L 231.854256 174.883442 L 221.437589 164.466775 L 221.437589 299.880971 L 231.854256 289.464305 L 166.331252 289.464305 L 166.331252 310.297637 Z M 137.937952 3.347196 L 14.536298 3.347196 C 8.783332 3.347196 4.119632 8.010896 4.119632 13.763862 L 4.119632 83.655066 C 4.119632 89.408031 8.783332 94.071732 14.536298 94.071732 L 92.071847 94.071732 L 81.655181 83.655066 L 81.655181 164.466775 L 92.071847 154.050109 L 14.536298 154.050109 C 8.783332 154.050109 4.119632 158.713810 4.119632 164.466775 L 4.119632 229.989769 C 4.119632 235.742734 8.783332 240.406435 14.536298 240.406435 L 166.331252 240.406435 L 166.331252 219.573103 L 14.536298 219.573103 L 24.952964 229.989769 L 24.952964 164.466775 L 14.536298 174.883442 L 92.071847 174.883442 C 97.824813 174.883442 102.488513 170.219741 102.488513 164.466775 L 102.488513 83.655066 C 102.488513 77.902100 97.824813 73.238399 92.071847 73.238399 L 14.536298 73.238399 L 24.952964 83.655066 L 24.952964 13.763862 L 14.536298 24.180528 L 137.937952 24.180528 L 137.937952 3.347196 Z" transform="scale(0.240000,0.240000) translate(441.666649,120.833329)" fill="#ff8300" opacity="1.000000"></path>
        <path d="M 2.517836 27.437436 C 2.517836 41.158476 13.640937 52.281576 27.361977 52.281576 C 41.083017 52.281576 52.206118 41.158476 52.206118 27.437436 C 52.206118 13.716395 41.083017 2.593295 27.361977 2.593295 C 13.640937 2.593295 2.517836 13.716395 2.517836 27.437436 Z" transform="scale(0.240000,0.240000) translate(537.499979,708.333305)" fill="#ff8300" opacity="1.000000"></path>
        <path d="M 3.635733 26.786140 C 3.635733 40.507180 14.758834 51.630280 28.479874 51.630280 C 42.200914 51.630280 53.324015 40.507180 53.324015 26.786140 C 53.324015 13.065099 42.200914 1.941999 28.479874 1.941999 C 14.758834 1.941999 3.635733 13.065099 3.635733 26.786140 Z" transform="scale(0.240000,0.240000) translate(504.166647,491.666647)" fill="#ff8300" opacity="1.000000"></path>
        <path d="M 2.192188 26.786140 C 2.192188 40.507180 13.315289 51.630280 27.036329 51.630280 C 40.757369 51.630280 51.880470 40.507180 51.880470 26.786140 C 51.880470 13.065099 40.757369 1.941999 27.036329 1.941999 C 13.315289 1.941999 2.192188 13.065099 2.192188 26.786140 Z" transform="scale(0.240000,0.240000) translate(429.166650,491.666647)" fill="#ff8300" opacity="1.000000"></path>
        <path d="M 2.192188 29.120226 C 2.192188 42.841266 13.315289 53.964366 27.036329 53.964366 C 40.757369 53.964366 51.880470 42.841266 51.880470 29.120226 C 51.880470 15.399185 40.757369 4.276085 27.036329 4.276085 C 13.315289 4.276085 2.192188 15.399185 2.192188 29.120226 Z" transform="scale(0.240000,0.240000) translate(429.166650,562.499978)" fill="#ff8300" opacity="1.000000"></path>
        <path d="M 3.987130 29.593693 C 3.987130 43.314733 15.110231 54.437834 28.831271 54.437834 C 42.552311 54.437834 53.675412 43.314733 53.675412 29.593693 C 53.675412 15.872653 42.552311 4.749552 28.831271 4.749552 C 15.110231 4.749552 3.987130 15.872653 3.987130 29.593693 Z" transform="scale(0.240000,0.240000) translate(579.166644,391.666651)" fill="#ff8300" opacity="1.000000"></path>
        <path d="M 3.987130 27.850345 C 3.987130 41.571385 15.110231 52.694486 28.831271 52.694486 C 42.552311 52.694486 53.675412 41.571385 53.675412 27.850345 C 53.675412 14.129305 42.552311 3.006204 28.831271 3.006204 C 15.110231 3.006204 3.987130 14.129305 3.987130 27.850345 Z" transform="scale(0.240000,0.240000) translate(579.166644,174.999993)" fill="#ff8300" opacity="1.000000"></path>
        <path d="M 3.987130 26.642167 C 3.987130 40.363207 15.110231 51.486307 28.831271 51.486307 C 42.552311 51.486307 53.675412 40.363207 53.675412 26.642167 C 53.675412 12.921126 42.552311 1.798026 28.831271 1.798026 C 15.110231 1.798026 3.987130 12.921126 3.987130 26.642167 Z" transform="scale(0.240000,0.240000) translate(579.166644,324.999987)" fill="#ff8300" opacity="1.000000"></path>
        <path d="M 4.143024 28.792448 C 4.143024 42.513488 15.266125 53.636589 28.987165 53.636589 C 42.708205 53.636589 53.831306 42.513488 53.831306 28.792448 C 53.831306 15.071408 42.708205 3.948307 28.987165 3.948307 C 15.266125 3.948307 4.143024 15.071408 4.143024 28.792448 Z" transform="scale(0.240000,0.240000) translate(554.166645,104.166663)" fill="#ff8300" opacity="1.000000"></path>
        <path d="M 11.598201 41.968670 L 11.598201 30.233980 L 21.940138 30.233980 Q 25.021976 30.233980 26.562894 30.945173 Q 29.289136 32.189762 29.289136 35.864260 Q 29.289136 39.835090 26.651794 41.198210 Q 25.170141 41.968670 22.206835 41.968670 Z M 24.103351 49.554732 Q 28.696474 49.465833 31.170835 48.428676 Q 33.645195 47.391519 35.363912 45.376471 Q 36.786299 43.717020 37.616024 41.701972 Q 38.445750 39.686925 38.445750 37.108849 Q 38.445750 33.997378 36.875198 30.989623 Q 35.304646 27.981868 31.689413 26.737279 Q 34.711985 25.522324 35.971390 23.285028 Q 37.230794 21.047733 37.230794 16.454609 L 37.230794 13.520937 Q 37.230794 10.527998 37.467859 9.461208 Q 37.823455 7.772124 39.127310 6.972031 L 39.127310 5.875608 L 29.081704 5.875608 Q 28.666841 7.327628 28.489043 8.216620 Q 28.133446 10.053869 28.103813 11.980018 L 28.044547 16.039746 Q 27.985281 20.218007 26.518445 21.610761 Q 25.051609 23.003514 21.021513 23.003514 L 11.598201 23.003514 L 11.598201 5.875608 L 2.678652 5.875608 L 2.678652 49.554732 Z M 58.359163 32.071229 Q 55.425490 32.071229 53.810489 30.233980 Q 52.195487 28.396730 51.780625 25.255627 L 64.908068 25.255627 Q 64.700637 28.604162 62.878204 30.337696 Q 61.055771 32.071229 58.359163 32.071229 Z M 58.359163 39.034997 Q 62.389258 39.034997 65.619261 37.523712 Q 68.849265 36.012426 70.953211 32.752790 Q 72.849727 29.878383 73.412755 26.085352 Q 73.738719 23.862873 73.679453 19.684612 L 51.573193 19.684612 Q 51.750992 14.824791 54.625398 12.869009 Q 56.373748 11.654054 58.833292 11.654054 Q 61.441001 11.654054 63.070819 13.135707 Q 63.959810 13.935799 64.641371 15.358186 L 73.264590 15.358186 Q 72.938626 12.483780 70.271651 9.520474 Q 66.123023 4.808818 58.655493 4.808818 Q 52.491818 4.808818 47.780162 8.779648 Q 43.068506 12.750477 43.068506 21.699660 Q 43.068506 30.085815 47.320850 34.560406 Q 51.573193 39.034997 58.359163 39.034997 Z M 97.178466 21.581128 Q 96.378373 21.077366 95.563464 20.766219 Q 94.748555 20.455072 93.326168 20.188374 L 91.429653 19.832777 Q 88.762678 19.358649 87.606989 18.677088 Q 85.651207 17.521399 85.651207 15.091489 Q 85.651207 12.928276 86.851346 11.965201 Q 88.051484 11.002127 89.770202 11.002127 Q 92.496443 11.002127 94.793005 12.602312 Q 97.089566 14.202497 97.178466 18.440024 Z M 92.051947 25.522324 Q 94.392958 25.818655 95.400482 26.263150 Q 97.208099 27.033610 97.208099 28.663428 Q 97.208099 30.648843 95.830161 31.404486 Q 94.452224 32.160129 91.785249 32.160129 Q 88.792311 32.160129 87.547722 30.678476 Q 86.658731 29.582053 86.362400 27.715170 L 78.213310 27.715170 Q 78.480008 31.952697 80.583954 34.678938 Q 83.932490 38.946098 92.081580 38.946098 Q 97.385897 38.946098 101.504892 36.842151 Q 105.623886 34.738204 105.623886 28.900492 L 105.623886 14.083965 Q 105.623886 12.543046 105.683152 10.350200 Q 105.772052 8.690749 106.186914 8.098087 Q 106.601777 7.505426 107.431503 7.120197 L 107.431503 5.875608 L 98.245256 5.875608 Q 97.860026 6.853499 97.711861 7.712858 Q 97.563695 8.572216 97.474796 9.668639 Q 95.726446 7.772124 93.444701 6.438636 Q 90.718459 4.868084 87.281025 4.868084 Q 82.895333 4.868084 80.035743 7.372078 Q 77.176153 9.876071 77.176153 14.469194 Q 77.176153 20.425439 81.769277 23.092414 Q 84.288086 24.544433 89.177541 25.166727 Z M 132.412168 26.589114 Q 132.175104 28.396730 131.197213 29.848750 Q 129.774826 31.804532 126.781888 31.804532 Q 122.514728 31.804532 120.944176 27.567005 Q 120.114450 25.314893 120.114450 21.581128 Q 120.114450 18.025161 120.944176 15.861948 Q 122.455462 11.831852 126.633723 11.831852 Q 129.597028 11.831852 130.841616 13.432037 Q 132.086205 15.032222 132.352902 17.580665 L 140.976121 17.580665 Q 140.679791 13.728368 138.190614 10.290934 Q 134.219785 4.749552 126.426291 4.749552 Q 118.632798 4.749552 114.958299 9.372309 Q 111.283800 13.995066 111.283800 21.373696 Q 111.283800 29.700585 115.343528 34.323342 Q 119.403257 38.946098 126.544823 38.946098 Q 132.619600 38.946098 136.486714 36.219857 Q 140.353827 33.493616 141.065021 26.589114 Z M 143.554197 31.863798 L 143.554197 37.879308 L 148.058422 37.879308 L 148.058422 46.887757 L 156.414943 46.887757 L 156.414943 37.879308 L 161.659994 37.879308 L 161.659994 31.863798 L 156.414943 31.863798 L 156.414943 14.795158 Q 156.414943 12.809743 156.918705 12.320798 Q 157.422467 11.831852 160.000543 11.831852 Q 160.385773 11.831852 160.815452 11.846669 Q 161.245131 11.861486 161.659994 11.891119 L 161.659994 5.579278 L 157.659532 5.431113 Q 151.673654 5.223681 149.480808 7.505426 Q 148.058422 8.957446 148.058422 11.980018 L 148.058422 31.863798 Z" transform="scale(0.240000,0.240000) translate(241.666657,391.666651)" fill="#ff8300" opacity="1.000000"></path>
        <path d="M 2.685898 56.017058 L 39.788783 56.017058 L 39.788783 46.821224 L 13.550475 46.821224 L 13.550475 34.784977 L 36.522309 34.784977 L 36.522309 25.695657 L 13.550475 25.695657 L 13.550475 3.753472 L 2.685898 3.753472 Z M 56.689236 47.069760 L 46.428247 47.069760 L 46.428247 56.407615 L 56.689236 56.407615 Z M 46.428247 42.454090 L 56.689236 42.454090 L 56.689236 3.753472 L 46.428247 3.753472 Z M 87.507710 43.377224 Q 87.791751 43.377224 87.987029 43.359471 Q 88.182308 43.341719 88.856905 43.306213 L 88.856905 32.938709 Q 87.898266 33.045224 87.152658 33.080729 Q 86.407050 33.116234 85.945483 33.116234 Q 79.838596 33.116234 77.743792 29.139657 Q 76.572122 26.902832 76.572122 22.251657 L 76.572122 3.753472 L 66.382143 3.753472 L 66.382143 42.454090 L 76.039545 42.454090 L 76.039545 35.708111 Q 78.382885 39.578172 80.122638 40.998378 Q 82.963050 43.377224 87.507710 43.377224 Z M 110.053482 35.140028 Q 106.538472 35.140028 104.603441 32.938709 Q 102.668410 30.737389 102.171338 26.973843 L 117.900121 26.973843 Q 117.651585 30.985925 115.468018 33.062977 Q 113.284451 35.140028 110.053482 35.140028 Z M 110.053482 43.483739 Q 114.882183 43.483739 118.752245 41.672976 Q 122.622307 39.862213 125.143172 35.956647 Q 127.415502 32.512647 128.090100 27.967987 Q 128.480657 25.305101 128.409647 20.298874 L 101.922802 20.298874 Q 102.135833 14.476029 105.579833 12.132689 Q 107.674637 10.676977 110.621565 10.676977 Q 113.746018 10.676977 115.698802 12.452235 Q 116.763956 13.410874 117.580575 15.115121 L 127.912574 15.115121 Q 127.522018 11.671122 124.326554 8.120606 Q 119.355832 2.475287 110.408534 2.475287 Q 103.023462 2.475287 97.378142 7.232977 Q 91.732823 11.990668 91.732823 22.713224 Q 91.732823 32.761183 96.827812 38.122461 Q 101.922802 43.483739 110.053482 43.483739 Z" transform="scale(0.240000,0.240000) translate(429.166650,387.499985)" fill="#5972ff" opacity="1.000000"></path>
    </g>
</svg>